<svg xmlns="http://www.w3.org/2000/svg" width="650" height="520" viewBox="0 0 650 520" version="1.1"><path d="M 322.399 172.409 C 320.144 174.659, 298.385 195.400, 274.046 218.500 L 229.794 260.500 230.344 269 C 231.898 293.004, 244.232 317.370, 262.204 331.938 C 270.302 338.503, 283.245 345.175, 294.562 348.621 C 302.720 351.105, 304.983 351.349, 320.500 351.421 C 335.670 351.492, 338.303 351.248, 344.957 349.158 C 353.197 346.571, 364.223 341.299, 370.723 336.838 L 374.947 333.940 375.417 336.220 C 375.675 337.474, 376.266 340.300, 376.730 342.500 L 377.574 346.500 399.287 346.770 L 421 347.039 421 260.020 L 421 173 399.072 173 L 377.144 173 376.447 178.750 C 376.064 181.912, 375.582 184.794, 375.376 185.153 C 375.170 185.512, 372.001 183.836, 368.334 181.427 C 360.183 176.073, 349.001 171.320, 340.138 169.442 C 329.743 167.238, 327.147 167.673, 322.399 172.409 M 326 236.147 L 326 260 303.500 260 C 286.163 260, 281.002 260.287, 281.008 261.250 C 281.036 265.966, 283.534 276.222, 285.955 281.562 C 294.533 300.479, 315.250 310.901, 335.765 306.618 C 358.119 301.951, 372 284.092, 372 260 C 372 234.378, 355.344 215.083, 331.250 212.793 L 326 212.294 326 236.147" stroke="none" fill="#f9fbfb" fill-rule="evenodd"/><path d="M -0 260.002 L -0 520.003 325.250 519.752 L 650.500 519.500 650.752 259.750 L 651.004 0 325.502 0 L 0 0 -0 260.002 M 0.492 260.500 C 0.492 403.500, 0.608 462.149, 0.750 390.831 C 0.892 319.512, 0.892 202.512, 0.750 130.831 C 0.608 59.149, 0.492 117.500, 0.492 260.500 M 322.399 172.409 C 320.144 174.659, 298.385 195.400, 274.046 218.500 L 229.794 260.500 230.344 269 C 231.898 293.004, 244.232 317.370, 262.204 331.938 C 270.302 338.503, 283.245 345.175, 294.562 348.621 C 302.720 351.105, 304.983 351.349, 320.500 351.421 C 335.670 351.492, 338.303 351.248, 344.957 349.158 C 353.197 346.571, 364.223 341.299, 370.723 336.838 L 374.947 333.940 375.417 336.220 C 375.675 337.474, 376.266 340.300, 376.730 342.500 L 377.574 346.500 399.287 346.770 L 421 347.039 421 260.020 L 421 173 399.072 173 L 377.144 173 376.447 178.750 C 376.064 181.912, 375.582 184.794, 375.376 185.153 C 375.170 185.512, 372.001 183.836, 368.334 181.427 C 360.183 176.073, 349.001 171.320, 340.138 169.442 C 329.743 167.238, 327.147 167.673, 322.399 172.409 M 326 236.147 L 326 260 303.500 260 C 286.163 260, 281.002 260.287, 281.008 261.250 C 281.036 265.966, 283.534 276.222, 285.955 281.562 C 294.533 300.479, 315.250 310.901, 335.765 306.618 C 358.119 301.951, 372 284.092, 372 260 C 372 234.378, 355.344 215.083, 331.250 212.793 L 326 212.294 326 236.147" stroke="none" fill="#347cf3" fill-rule="evenodd"/></svg>