<svg xmlns="http://www.w3.org/2000/svg" width="225" height="225" viewBox="0 0 225 225" version="1.1"><path d="M 61 62.519 C 33.225 88.637, 10.350 110.454, 10.167 111.003 C 9.955 111.635, 15.111 112, 24.253 112 C 32.184 112, 55.621 112.298, 76.336 112.662 L 114 113.325 114 64.162 C 114 25.491, 113.733 15.003, 112.750 15.016 C 112.063 15.025, 88.775 36.401, 61 62.519" stroke="none" fill="#8bd3fb" fill-rule="evenodd"/><path d="M 112.564 13.897 C 112.189 14.503, 112.359 15, 112.941 15 C 113.656 15, 114 22.461, 114 37.939 L 114 60.877 118.750 61.530 C 136.698 63.996, 149.935 72.949, 157.283 87.593 C 161.458 95.915, 163 102.632, 163 112.500 C 163 135.564, 151.340 153.406, 131.580 160.579 C 103.560 170.749, 73.831 155.612, 66.604 127.496 C 65.757 124.198, 64.798 119.376, 64.475 116.781 L 63.887 112.061 36.315 111.781 C 13.453 111.548, 8.653 111.738, 8.209 112.896 C 7.372 115.081, 9.839 133.949, 11.893 141.073 C 16.962 158.648, 24.656 171.808, 36.992 184 C 54.458 201.263, 76.427 210.474, 103 211.673 C 125.866 212.705, 143.495 207.730, 162.638 194.843 L 166.777 192.058 167.480 197.686 C 167.867 200.781, 168.415 203.918, 168.699 204.657 C 169.110 205.729, 174.031 206, 193.107 206 L 217 206 217 112.500 L 217 19 193.067 19 C 166.079 19, 168.702 18.106, 167.482 27.726 L 166.819 32.952 160.781 28.852 C 148.941 20.811, 133.234 14.934, 119.716 13.486 C 115.375 13.021, 113.021 13.156, 112.564 13.897" stroke="none" fill="#337af0" fill-rule="evenodd"/></svg>